0
SECTION
2
HEADER
9
$INSUNITS
70
4
9
$ACADVER
1
AC1014
9
$HANDSEED
5
FFFF
0
ENDSEC
0
SECTION
2
TABLES
0
TABLE
2
VPORT
5
8
100
AcDbSymbolTable
0
ENDTAB
0
TABLE
2
LTYPE
5
5
100
AcDbSymbolTable
0
LTYPE
5
14
100
AcDbSymbolTableRecord
100
AcDbLinetypeTableRecord
2
BYBLOCK
70
0
0
LTYPE
5
15
100
AcDbSymbolTableRecord
100
AcDbLinetypeTableRecord
2
BYLAYER
70
0
0
ENDTAB
0
TABLE
2
LAYER
5
2
100
AcDbSymbolTable
70
2
0
LAYER
5
50
100
AcDbSymbolTableRecord
100
AcDbLayerTableRecord
2
0
70
0
6
CONTINUOUS
0
ENDTAB
0
TABLE
2
STYLE
5
3
100
AcDbSymbolTable
70
1
0
STYLE
5
11
100
AcDbSymbolTableRecord
100
AcDbTextStyleTableRecord
2
STANDARD
70
0
0
ENDTAB
0
TABLE
2
VIEW
5
6
100
AcDbSymbolTable
70
0
0
ENDTAB
0
TABLE
2
UCS
5
7
100
AcDbSymbolTable
70
0
0
ENDTAB
0
TABLE
2
APPID
5
9
100
AcDbSymbolTable
70
2
0
APPID
5
12
100
AcDbSymbolTableRecord
100
AcDbRegAppTableRecord
2
ACAD
70
0
0
ENDTAB
0
TABLE
2
DIMSTYLE
5
A
100
AcDbSymbolTable
70
1
0
ENDTAB
0
TABLE
2
BLOCK_RECORD
5
1
100
AcDbSymbolTable
70
1
0
BLOCK_RECORD
5
1F
100
AcDbSymbolTableRecord
100
AcDbBlockTableRecord
2
*MODEL_SPACE
0
BLOCK_RECORD
5
1B
100
AcDbSymbolTableRecord
100
AcDbBlockTableRecord
2
*PAPER_SPACE
0
ENDTAB
0
ENDSEC
0
SECTION
2
BLOCKS
0
BLOCK
5
20
100
AcDbEntity
100
AcDbBlockBegin
2
*MODEL_SPACE
0
ENDBLK
5
21
100
AcDbEntity
100
AcDbBlockEnd
0
BLOCK
5
1C
100
AcDbEntity
100
AcDbBlockBegin
2
*PAPER_SPACE
0
ENDBLK
5
1D
100
AcDbEntity
100
AcDbBlockEnd
0
ENDSEC
0
SECTION
2
ENTITIES
0
CIRCLE
5
100
100
AcDbEntity
8
0
100
AcDbCircle
10
17.50272954353596
20
22.331070016775811
30
0
40
1.5000000000000016
210
0
220
0
230
1
0
LINE
5
101
100
AcDbEntity
8
0
100
AcDbLine
10
17.422905095998974
20
54.830971986744515
30
0
11
17.422905095998974
21
54.830971986744515
31
0
0
ARC
5
102
100
AcDbEntity
8
0
100
AcDbCircle
10
17.422905095998974
20
54.290610538122635
30
0
40
0.54036144862187996
210
0
220
-0
230
1
100
AcDbArc
50
90
51
90.143105763119536
0
ARC
5
103
100
AcDbEntity
8
0
100
AcDbCircle
10
15.15861177806627
20
51.300745933455936
30
0
40
1.5643598039914006
210
0
220
0
230
1
100
AcDbArc
50
-85.373934737980406
51
0.52824590443612385
0
ARC
5
104
100
AcDbEntity
8
0
100
AcDbCircle
10
11.555604270749573
20
51.267526595059643
30
0
40
5.167520447402123
210
0
220
-0
230
1
100
AcDbArc
50
0.52824590443543384
51
16.402485771483295
0
LINE
5
105
100
AcDbEntity
8
0
100
AcDbLine
10
17.421555454581718
20
54.830970301266397
30
0
11
17.721555053414836
21
54.830970301266397
31
0
0
LINE
5
106
100
AcDbEntity
8
0
100
AcDbLine
10
17.422905095998974
20
54.830971986744515
30
0
11
17.122912493919294
21
54.830971986744515
31
0
0
ARC
5
107
100
AcDbEntity
8
0
100
AcDbCircle
10
18.462177019064477
20
53.300567097432818
30
0
40
2.0320629302702145
210
0
220
0
230
1
100
AcDbArc
50
131.22871465242622
51
196.40248577148282
0
LINE
5
108
100
AcDbEntity
8
0
100
AcDbLine
10
16.422905095998978
20
53.588387274479757
30
0
11
16.450600697305088
21
53.588387274479757
31
0
0
LINE
5
109
100
AcDbEntity
8
0
100
AcDbLine
10
18.408955153340678
20
53.588387274479757
30
0
11
18.422905095998978
21
53.588387274479757
31
0
0
ARC
5
110
100
AcDbEntity
8
0
100
AcDbCircle
10
16.553739486310107
20
53.373504493026395
30
0
40
1.8676187461473055
210
-0
220
0
230
1
100
AcDbArc
50
51.264536860624709
51
51.296042922806222
0
LINE
5
111
100
AcDbEntity
8
0
100
AcDbLine
10
17.422905095998974
20
54.830971986744515
30
0
11
17.722897698078654
21
54.830971986744515
31
0
0
ARC
5
112
100
AcDbEntity
8
0
100
AcDbCircle
10
16.383633172933475
20
53.300567097432818
30
0
40
2.0320629302702145
210
0
220
0
230
1
100
AcDbArc
50
-16.402485771482851
51
48.771285347573858
0
ARC
5
113
100
AcDbEntity
8
0
100
AcDbCircle
10
23.290205921248379
20
51.267526595059643
30
0
40
5.1675204474021275
210
0
220
0
230
1
100
AcDbArc
50
163.59751422851673
51
179.47175409556456
0
ARC
5
114
100
AcDbEntity
8
0
100
AcDbCircle
10
19.687198413931682
20
51.300745933455936
30
0
40
1.5643598039914028
210
0
220
0
230
1
100
AcDbArc
50
179.47175409556388
51
265.37393473798039
0
ARC
5
115
100
AcDbEntity
8
0
100
AcDbCircle
10
9.1867020731248061
20
50.18031952061763
30
0
40
1.564359803991394
210
0
220
0
230
1
100
AcDbArc
50
-73.373934737980235
51
12.528245904436419
0
ARC
5
116
100
AcDbEntity
8
0
100
AcDbCircle
10
5.6693356132309125
20
49.398718721592033
30
0
40
5.167520447402123
210
0
220
-0
230
1
100
AcDbArc
50
12.528245904435979
51
28.402485771483413
0
ARC
5
117
100
AcDbEntity
8
0
100
AcDbCircle
10
12.002290287939225
20
52.823289629041028
30
0
40
2.0320629302702171
210
0
220
0
230
1
100
AcDbArc
50
143.22871465242631
51
208.40248577148287
0
LINE
5
118
100
AcDbEntity
8
0
100
AcDbLine
10
10.667539881710137
20
54.104174716928583
30
0
11
10.374102837748007
21
54.041802747797369
31
0
0
ARC
5
119
100
AcDbEntity
8
0
100
AcDbCircle
10
9.9691676118261707
20
52.391136063553091
30
0
40
2.0320629302702127
210
0
220
0
230
1
100
AcDbArc
50
-4.4024857714833434
51
60.77128534757383
0
ARC
5
120
100
AcDbEntity
8
0
100
AcDbCircle
10
17.147508063233275
20
51.838479591820118
30
0
40
5.167520447402131
210
0
220
0
230
1
100
AcDbArc
50
175.59751422851684
51
191.47175409556394
0
ARC
5
121
100
AcDbEntity
8
0
100
AcDbCircle
10
13.616328225711737
20
51.121865625095126
30
0
40
1.5643598039914017
210
0
220
0
230
1
100
AcDbArc
50
191.47175409556345
51
277.37393473798033
0
LINE
5
122
100
AcDbEntity
8
0
100
AcDbLine
10
10.667539881710137
20
54.104174716928583
30
0
11
10.960976925672268
21
54.166546686059789
31
0
0
ARC
5
123
100
AcDbEntity
8
0
100
AcDbCircle
10
3.5782426733674666
20
47.84274726893571
30
0
40
1.5643598039914128
210
0
220
0
230
1
100
AcDbArc
50
-61.37393473798052
51
24.528245904436375
0
ARC
5
124
100
AcDbEntity
8
0
100
AcDbCircle
10
0.30024305339061863
20
46.346924714734982
30
0
40
5.1675204474021257
210
0
220
-0
230
1
100
AcDbArc
50
24.528245904435959
51
40.402485771483185
0
ARC
5
125
100
AcDbEntity
8
0
100
AcDbCircle
10
5.7827991463194683
20
51.013355845689823
30
0
40
2.0320629302702171
210
0
220
0
230
1
100
AcDbArc
50
155.22871465242608
51
220.40248577148287
0
LINE
5
126
100
AcDbEntity
8
0
100
AcDbLine
10
4.2109052545220571
20
51.988740307443976
30
0
11
3.9368483755657824
21
51.866722323526503
31
0
0
ARC
5
127
100
AcDbEntity
8
0
100
AcDbCircle
10
3.8839548571755111
20
50.167935899228638
30
0
40
2.0320629302702127
210
0
220
-0
230
1
100
AcDbArc
50
7.597514228517289
51
72.77128534757388
0
ARC
5
128
100
AcDbEntity
8
0
100
AcDbCircle
10
11.020335088449169
20
51.119817197890605
30
0
40
5.1675204474021275
210
0
220
0
230
1
100
AcDbArc
50
187.59751422851664
51
203.47175409556408
0
ARC
5
129
100
AcDbEntity
8
0
100
AcDbCircle
10
7.7153124241033026
20
49.684689395085528
30
0
40
1.5643598039914024
210
0
220
0
230
1
100
AcDbArc
50
203.47175409556365
51
289.37393473798039
0
LINE
5
130
100
AcDbEntity
8
0
100
AcDbLine
10
4.2109052545220571
20
51.988740307443976
30
0
11
4.4849621334783318
21
52.110758291361421
31
0
0
ARC
5
131
100
AcDbEntity
8
0
100
AcDbCircle
10
-1.4216498330622551
20
44.390192302724799
30
0
40
1.5643598039914062
210
0
220
0
230
1
100
AcDbArc
50
-49.373934737980562
51
36.528245904436581
0
ARC
5
132
100
AcDbEntity
8
0
100
AcDbCircle
10
-4.3170183001417257
20
42.245522616720486
30
0
40
5.167520447402123
210
0
220
-0
230
1
100
AcDbArc
50
36.528245904435991
51
52.402485771483313
0
ARC
5
133
100
AcDbEntity
8
0
100
AcDbCircle
10
0.075525201523685137
20
47.949868538737555
30
0
40
2.0320629302702202
210
0
220
0
230
1
100
AcDbArc
50
167.22871465242588
51
232.40248577148267
0
LINE
5
134
100
AcDbEntity
8
0
100
AcDbLine
10
-1.6648128699867515
20
48.577123392965689
30
0
11
-1.9075119832559717
21
48.400792165666417
31
0
0
ARC
5
135
100
AcDbEntity
8
0
100
AcDbCircle
10
-1.6060520935497613
20
46.728131119738464
30
0
40
2.032062930270214
210
0
220
-0
230
1
100
AcDbArc
50
19.597514228517319
51
84.771285347573837
0
ARC
5
136
100
AcDbEntity
8
0
100
AcDbCircle
10
5.1764738573321161
20
49.142948408410604
30
0
40
5.1675204474021346
210
0
220
0
230
1
100
AcDbArc
50
199.59751422851687
51
215.47175409556417
0
ARC
5
137
100
AcDbEntity
8
0
100
AcDbCircle
10
2.2420537158521348
20
47.05202874101527
30
0
40
1.5643598039914082
210
0
220
0
230
1
100
AcDbArc
50
215.47175409556368
51
301.37393473798051
0
LINE
5
138
100
AcDbEntity
8
0
100
AcDbLine
10
-1.6648128699867515
20
48.577123392965689
30
0
11
-1.422113756717529
21
48.753454620264982
31
0
0
ARC
5
139
100
AcDbEntity
8
0
100
AcDbCircle
10
-5.5944561514872682
20
39.973547841205161
30
0
40
1.5643598039914037
210
0
220
0
230
1
100
AcDbArc
50
-37.373934737980086
51
48.528245904436169
0
ARC
5
140
100
AcDbEntity
8
0
100
AcDbCircle
10
-7.9806519701386147
20
37.273763379942608
30
0
40
5.1675204474021115
210
0
220
-0
230
1
100
AcDbArc
50
48.528245904435856
51
64.402485771483342
0
ARC
5
141
100
AcDbEntity
8
0
100
AcDbCircle
10
-4.8700962885216859
20
43.76671680374109
30
0
40
2.032062930270218
210
0
220
0
230
1
100
AcDbArc
50
179.22871465242633
51
244.40248577148276
0
LINE
5
142
100
AcDbEntity
8
0
100
AcDbLine
10
-6.702817414951534
20
44.018428003410719
30
0
11
-6.903551646684285
21
43.795490053493715
31
0
0
ARC
5
143
100
AcDbEntity
8
0
100
AcDbCircle
10
-6.2609135926267978
20
42.222057699960956
30
0
40
2.0320629302702136
210
0
220
-0
230
1
100
AcDbArc
50
31.597514228517017
51
96.771285347573738
0
ARC
5
144
100
AcDbEntity
8
0
100
AcDbCircle
10
-0.12867085236068831
20
45.994271875549288
30
0
40
5.1675204474021292
210
0
220
0
230
1
100
AcDbArc
50
211.59751422851676
51
227.47175409556402
0
ARC
5
145
100
AcDbEntity
8
0
100
AcDbCircle
10
-2.5642402298820199
20
43.338943566374617
30
0
40
1.5643598039913962
210
0
220
0
230
1
100
AcDbArc
50
227.47175409556317
51
313.37393473798085
0
LINE
5
146
100
AcDbEntity
8
0
100
AcDbLine
10
-6.702817414951534
20
44.018428003410719
30
0
11
-6.5020831832187875
21
44.241365953327744
31
0
0
ARC
5
147
100
AcDbEntity
8
0
100
AcDbCircle
10
-8.7578046224461126
20
34.78584244075671
30
0
40
1.5643598039914015
210
0
220
0
230
1
100
AcDbArc
50
-25.373934737980271
51
60.528245904436531
0
ARC
5
148
100
AcDbEntity
8
0
100
AcDbCircle
10
-10.53053958515636
20
31.648936740196262
30
0
40
5.167520447402123
210
0
220
-0
230
1
100
AcDbArc
50
60.528245904435941
51
76.402485771483313
0
ARC
5
149
100
AcDbEntity
8
0
100
AcDbCircle
10
-8.8379179329767545
20
38.646724444508855
30
0
40
2.032062930270218
210
0
220
0
230
1
100
AcDbArc
50
191.22871465242611
51
256.40248577148276
0
LINE
5
150
100
AcDbEntity
8
0
100
AcDbLine
10
-10.682923406729351
20
38.511891002350076
30
0
11
-10.832919707769193
21
38.252089788001683
31
0
0
ARC
5
151
100
AcDbEntity
8
0
100
AcDbCircle
10
-9.8771898560422535
20
36.846652670879593
30
0
40
2.0320629302702082
210
0
220
-0
230
1
100
AcDbArc
50
43.597514228517355
51
108.77128534757377
0
ARC
5
152
100
AcDbEntity
8
0
100
AcDbCircle
10
-4.6632387599069602
20
41.811399872819024
30
0
40
5.1675204474021283
210
0
220
0
230
1
100
AcDbArc
50
223.5975142285167
51
239.47175409556411
0
ARC
5
153
100
AcDbEntity
8
0
100
AcDbCircle
10
-6.4935113045134063
20
38.707713510654862
30
0
40
1.564359803991402
210
0
220
0
230
1
100
AcDbArc
50
239.47175409556357
51
325.37393473798062
0
LINE
5
154
100
AcDbEntity
8
0
100
AcDbLine
10
-10.682923406729351
20
38.511891002350076
30
0
11
-10.532927105689511
21
38.771692216698483
31
0
0
ARC
5
155
100
AcDbEntity
8
0
100
AcDbCircle
10
-10.773441738327811
20
29.053803720751425
30
0
40
1.5643598039914028
210
0
220
0
230
1
100
AcDbArc
50
-13.373934737980456
51
72.528245904436289
0
ARC
5
156
100
AcDbEntity
8
0
100
AcDbCircle
10
-11.855238820700382
20
25.616874612551172
30
0
40
5.1675204474021266
210
0
220
-0
230
1
100
AcDbArc
50
72.528245904435892
51
88.402485771483285
0
ARC
5
157
100
AcDbEntity
8
0
100
AcDbCircle
10
-11.654526886258161
20
32.813659695588484
30
0
40
2.0320629302702291
210
0
220
0
230
1
100
AcDbArc
50
203.22871465242611
51
268.40248577148259
0
LINE
5
158
100
AcDbEntity
8
0
100
AcDbLine
10
-13.43118111481199
20
32.298174480026269
30
0
11
-13.523883927041371
21
32.012864560978052
31
0
0
ARC
5
159
100
AcDbEntity
8
0
100
AcDbCircle
10
-12.296832258266104
20
30.836847026320399
30
0
40
2.03206293027021
210
0
220
-0
230
1
100
AcDbArc
50
55.597514228517383
51
120.77128534757385
0
ARC
5
160
100
AcDbEntity
8
0
100
AcDbCircle
10
-8.2290474884759401
20
36.777143978385929
30
0
40
5.1675204474021266
210
0
220
0
230
1
100
AcDbArc
50
235.5975142285167
51
251.47175409556411
0
ARC
5
161
100
AcDbEntity
8
0
100
AcDbCircle
10
-9.37403150734613
20
33.36074555039837
30
0
40
1.5643598039914
210
0
220
0
230
1
100
AcDbArc
50
251.47175409556385
51
337.37393473798028
0
LINE
5
162
100
AcDbEntity
8
0
100
AcDbLine
10
-13.43118111481199
20
32.298174480026269
30
0
11
-13.338478302582608
21
32.583484399074493
31
0
0
ARC
5
163
100
AcDbEntity
8
0
100
AcDbCircle
10
-11.553274485068341
20
23.027949278626988
30
0
40
1.5643598039914064
210
0
220
0
230
1
100
AcDbArc
50
-1.3739347379802858
51
84.528245904436361
0
ARC
5
164
100
AcDbEntity
8
0
100
AcDbCircle
10
-11.896853963565208
20
19.441207057030937
30
0
40
5.1675204474021239
210
0
220
-0
230
1
100
AcDbArc
50
84.528245904435963
51
100.40248577148337
0
ARC
5
165
100
AcDbEntity
8
0
100
AcDbCircle
10
-13.196823821518233
20
26.522455476657903
30
0
40
2.0320629302702189
210
0
220
0
230
1
100
AcDbArc
50
215.22871465242619
51
280.40248577148265
0
LINE
5
166
100
AcDbEntity
8
0
100
AcDbLine
10
-14.827478489752632
20
25.648847665184825
30
0
11
-14.858836255439689
21
25.350498453968086
31
0
0
ARC
5
167
100
AcDbEntity
8
0
100
AcDbCircle
10
-13.41409081558874
20
24.455298111197639
30
0
40
2.0320629302702096
210
0
220
-0
230
1
100
AcDbArc
50
67.597514228517412
51
132.77128534757381
0
ARC
5
168
100
AcDbEntity
8
0
100
AcDbCircle
10
-10.670254085980497
20
31.111525331876674
30
0
40
5.1675204474021283
210
0
220
0
230
1
100
AcDbArc
50
247.59751422851667
51
263.47175409556405
0
ARC
5
169
100
AcDbEntity
8
0
100
AcDbCircle
10
-11.079908283246898
20
27.531727843067291
30
0
40
1.5643598039914024
210
0
220
0
230
1
100
AcDbArc
50
263.47175409556382
51
349.37393473798045
0
LINE
5
170
100
AcDbEntity
8
0
100
AcDbLine
10
-14.827478489752632
20
25.648847665184825
30
0
11
-14.796120724065585
21
25.94719687640157
31
0
0
ARC
5
171
100
AcDbEntity
8
0
100
AcDbCircle
10
-11.063220429582428
20
16.971637868761942
30
0
40
1.5643598039913942
210
0
220
-0
230
1
100
AcDbArc
50
10.626065262019651
51
96.528245904436503
0
ARC
5
172
100
AcDbEntity
8
0
100
AcDbCircle
10
-10.653566232316036
20
13.391840379952558
30
0
40
5.1675204474021221
210
0
220
0
230
1
100
AcDbArc
50
96.528245904435934
51
112.4024857714833
0
ARC
5
173
100
AcDbEntity
8
0
100
AcDbCircle
10
-13.397402961924287
20
20.048067600631594
30
0
40
2.0320629302702198
210
0
220
0
230
1
100
AcDbArc
50
227.22871465242616
51
292.40248577148299
0
LINE
5
174
100
AcDbEntity
8
0
100
AcDbLine
10
-14.810790636088171
20
18.854518046644404
30
0
11
-14.779432870401115
21
18.556168835427663
31
0
0
ARC
5
175
100
AcDbEntity
8
0
100
AcDbCircle
10
-13.180135967853772
20
17.980910235171329
30
0
40
2.0320629302702127
210
0
220
-0
230
1
100
AcDbArc
50
79.59751422851707
51
144.77128534757389
0
ARC
5
176
100
AcDbEntity
8
0
100
AcDbCircle
10
-11.880166109900738
20
25.062158654798303
30
0
40
5.1675204474021328
210
0
220
0
230
1
100
AcDbArc
50
259.59751422851662
51
275.47175409556399
0
ARC
5
177
100
AcDbEntity
8
0
100
AcDbCircle
10
-11.536586631403871
20
21.475416433202241
30
0
40
1.5643598039913997
210
0
220
0
230
1
100
AcDbArc
50
-84.528245904436361
51
1.373934737980528
0
LINE
5
178
100
AcDbEntity
8
0
100
AcDbLine
10
-14.810790636088171
20
18.854518046644404
30
0
11
-14.842148401775219
21
19.152867257861146
31
0
0
ARC
5
179
100
AcDbEntity
8
0
100
AcDbCircle
10
-9.3246972856350929
20
11.149559361173832
30
0
40
1.5643598039914011
210
0
220
-0
230
1
100
AcDbArc
50
22.626065262019626
51
108.52824590443642
0
ARC
5
180
100
AcDbEntity
8
0
100
AcDbCircle
10
-8.1797132667649031
20
7.7331609331862801
30
0
40
5.1675204474021257
210
0
220
0
230
1
100
AcDbArc
50
108.52824590443601
51
124.40248577148331
0
ARC
5
181
100
AcDbEntity
8
0
100
AcDbCircle
10
-12.247498036555076
20
13.673457885251805
30
0
40
2.0320629302702202
210
0
220
0
230
1
100
AcDbArc
50
239.22871465242631
51
304.40248577148282
0
LINE
5
182
100
AcDbEntity
8
0
100
AcDbLine
10
-13.381846893100962
20
12.212130431545935
30
0
11
-13.28914408087158
21
11.926820512497718
31
0
0
ARC
5
183
100
AcDbEntity
8
0
100
AcDbCircle
10
-11.605192664547133
20
11.696645215983724
30
0
40
2.0320629302702136
210
0
220
0
230
1
100
AcDbArc
50
91.597514228517156
51
156.77128534757387
0
ARC
5
184
100
AcDbEntity
8
0
100
AcDbCircle
10
-11.805904598989345
20
18.893430299021034
30
0
40
5.1675204474021292
210
0
220
0
230
1
100
AcDbArc
50
271.59751422851667
51
287.47175409556405
0
ARC
5
185
100
AcDbEntity
8
0
100
AcDbCircle
10
-10.724107516616774
20
15.456501190820781
30
0
40
1.5643598039914006
210
0
220
0
230
1
100
AcDbArc
50
-72.528245904436602
51
13.373934737980367
0
LINE
5
186
100
AcDbEntity
8
0
100
AcDbLine
10
-13.381846893100962
20
12.212130431545935
30
0
11
-13.474549705330343
21
12.497440350594156
31
0
0
ARC
5
187
100
AcDbEntity
8
0
100
AcDbCircle
10
-6.413686856976426
20
5.8161665240765936
30
0
40
1.5643598039913913
210
0
220
-0
230
1
100
AcDbArc
50
34.626065262019615
51
120.52824590443656
0
ARC
5
188
100
AcDbEntity
8
0
100
AcDbCircle
10
-4.58341431236998
20
2.7124801619124339
30
0
40
5.1675204474021239
210
0
220
0
230
1
100
AcDbArc
50
120.52824590443595
51
136.40248577148333
0
ARC
5
189
100
AcDbEntity
8
0
100
AcDbCircle
10
-9.7973654085052875
20
7.6772273638518618
30
0
40
2.0320629302702216
210
0
220
0
230
1
100
AcDbArc
50
251.22871465242605
51
316.40248577148299
0
LINE
5
190
100
AcDbEntity
8
0
100
AcDbLine
10
-10.603098959192376
20
6.0119890323813792
30
0
11
-10.453102658152531
21
5.7521878180329811
31
0
0
ARC
5
191
100
AcDbEntity
8
0
100
AcDbCircle
10
-8.7580934854397885
20
5.8771555902225998
30
0
40
2.0320629302702118
210
0
220
0
230
1
100
AcDbArc
50
103.59751422851683
51
168.77128534757381
0
ARC
5
192
100
AcDbEntity
8
0
100
AcDbCircle
10
-10.45071513761938
20
12.874943294535207
30
0
40
5.1675204474021275
210
0
220
0
230
1
100
AcDbArc
50
283.59751422851667
51
299.47175409556399
0
ARC
5
193
100
AcDbEntity
8
0
100
AcDbCircle
10
-8.6779801749091323
20
9.7380375939747505
30
0
40
1.5643598039914008
210
0
220
0
230
1
100
AcDbArc
50
-60.528245904436631
51
25.373934737980306
0
LINE
5
194
100
AcDbEntity
8
0
100
AcDbLine
10
-10.603098959192376
20
6.0119890323813792
30
0
11
-10.753095260232213
21
6.2717902467297781
31
0
0
ARC
5
195
100
AcDbEntity
8
0
100
AcDbCircle
10
-2.4574142679166666
20
1.2045542169096013
30
0
40
1.5643598039913995
210
0
220
-0
230
1
100
AcDbArc
50
46.626065262019623
51
132.52824590443618
0
ARC
5
196
100
AcDbEntity
8
0
100
AcDbCircle
10
-0.021844890395339434
20
-1.4507740922650525
30
0
40
5.1675204474021266
210
0
220
0
230
1
100
AcDbArc
50
132.52824590443586
51
148.4024857714833
0
ARC
5
197
100
AcDbEntity
8
0
100
AcDbCircle
10
-6.15408763066144
20
2.3214400833232762
30
0
40
2.0320629302702216
210
0
220
0
230
1
100
AcDbArc
50
263.22871465242594
51
328.4024857714827
0
LINE
5
198
100
AcDbEntity
8
0
100
AcDbLine
10
-6.5959914529861852
20
0.52506977987350822
30
0
11
-6.3952572212534342
21
0.30213182995649568
31
0
0
ARC
5
199
100
AcDbEntity
8
0
100
AcDbCircle
10
-4.7632703265563325
20
0.77678097954313685
30
0
40
2.0320629302702136
210
0
220
0
230
1
100
AcDbArc
50
115.59751422851706
51
180.77128534757367
0
ARC
5
200
100
AcDbEntity
8
0
100
AcDbCircle
10
-7.873826008173257
20
7.2697344033416282
30
0
40
5.1675204474021275
210
0
220
0
230
1
100
AcDbArc
50
295.59751422851667
51
311.47175409556405
0
ARC
5
201
100
AcDbEntity
8
0
100
AcDbCircle
10
-5.4876301895219104
20
4.5699499420790684
30
0
40
1.5643598039914051
210
0
220
0
230
1
100
AcDbArc
50
-48.528245904436311
51
37.373934737980136
0
LINE
5
202
100
AcDbEntity
8
0
100
AcDbLine
10
-6.5959914529861852
20
0.52506977987350822
30
0
11
-6.7967256847189272
21
0.74800772979052077
31
0
0
ARC
5
203
100
AcDbEntity
8
0
100
AcDbCircle
10
2.3712123851001543
20
-2.4837279735329076
30
0
40
1.5643598039914028
210
0
220
-0
230
1
100
AcDbArc
50
58.626065262019637
51
144.52824590443643
0
ARC
5
204
100
AcDbEntity
8
0
100
AcDbCircle
10
5.3056325265801352
20
-4.5746476409282266
30
0
40
5.1675204474021239
210
0
220
0
230
1
100
AcDbArc
50
144.52824590443601
51
160.40248577148336
0
ARC
5
205
100
AcDbEntity
8
0
100
AcDbCircle
10
-1.4768934243017462
20
-2.1598303522561135
30
0
40
2.0320629302702189
210
0
220
0
230
1
100
AcDbArc
50
275.22871465242628
51
340.40248577148282
0
LINE
5
206
100
AcDbEntity
8
0
100
AcDbLine
10
-1.5356542007387386
20
-4.0088226254833348
30
0
11
-1.2929550874695117
21
-4.1851538527826104
31
0
0
ARC
5
207
100
AcDbEntity
8
0
100
AcDbCircle
10
0.20468387077170469
20
-3.3815677712551961
30
0
40
2.0320629302702153
210
0
220
0
230
1
100
AcDbArc
50
127.5975142285173
51
192.77128534757364
0
ARC
5
208
100
AcDbEntity
8
0
100
AcDbCircle
10
-4.1878596308937066
20
2.3227781507618861
30
0
40
5.167520447402131
210
0
220
0
230
1
100
AcDbArc
50
307.59751422851662
51
323.47175409556405
0
ARC
5
209
100
AcDbEntity
8
0
100
AcDbCircle
10
-1.2924911638142333
20
0.17810846475756481
30
0
40
1.5643598039913984
210
0
220
0
230
1
100
AcDbArc
50
-36.52824590443619
51
49.373934737980399
0
LINE
5
210
100
AcDbEntity
8
0
100
AcDbLine
10
-1.5356542007387386
20
-4.0088226254833348
30
0
11
-1.7783533140079566
21
-3.8324913981840503
31
0
0
ARC
5
211
100
AcDbEntity
8
0
100
AcDbCircle
10
7.8611589470157828
20
-5.0874844171870537
30
0
40
1.5643598039913997
210
0
220
-0
230
1
100
AcDbArc
50
70.626065262019793
51
156.52824590443649
0
ARC
5
212
100
AcDbEntity
8
0
100
AcDbCircle
10
11.166181611361647
20
-6.5226122199921255
30
0
40
5.1675204474021239
210
0
220
0
230
1
100
AcDbArc
50
156.52824590443598
51
172.40248577148324
0
ARC
5
213
100
AcDbEntity
8
0
100
AcDbCircle
10
4.0298013800879851
20
-5.5707309213301714
30
0
40
2.0320629302702211
210
0
220
0
230
1
100
AcDbArc
50
287.22871465242628
51
352.40248577148327
0
LINE
5
214
100
AcDbEntity
8
0
100
AcDbLine
10
4.3567517774345355
20
-7.3915353295454933
30
0
11
4.6308086563908102
21
-7.5135533134629595
31
0
0
ARC
5
215
100
AcDbEntity
8
0
100
AcDbCircle
10
5.9286456692319423
20
-6.4161508677913526
30
0
40
2.032062930270218
210
0
220
0
230
1
100
AcDbArc
50
139.59751422851693
51
204.77128534757381
0
ARC
5
216
100
AcDbEntity
8
0
100
AcDbCircle
10
0.44608957630309476
20
-1.7497197368364947
30
0
40
5.1675204474021221
210
0
220
0
230
1
100
AcDbArc
50
319.59751422851673
51
335.47175409556399
0
ARC
5
217
100
AcDbEntity
8
0
100
AcDbCircle
10
3.7240891962799472
20
-3.2455422910372222
30
0
40
1.564359803991402
210
0
220
0
230
1
100
AcDbArc
50
-24.528245904436378
51
61.373934737980349
0
LINE
5
218
100
AcDbEntity
8
0
100
AcDbLine
10
4.3567517774345355
20
-7.3915353295454933
30
0
11
4.0826948984782563
21
-7.2695173456280271
31
0
0
ARC
5
219
100
AcDbEntity
8
0
100
AcDbCircle
10
13.772488409388126
20
-6.492918463255517
30
0
40
1.5643598039913986
210
0
220
-0
230
1
100
AcDbArc
50
82.626065262019537
51
168.52824590443632
0
ARC
5
220
100
AcDbEntity
8
0
100
AcDbCircle
10
17.303668246909663
20
-7.2095324299805075
30
0
40
5.1675204474021186
210
0
220
0
230
1
100
AcDbArc
50
168.52824590443598
51
184.40248577148324
0
ARC
5
221
100
AcDbEntity
8
0
100
AcDbCircle
10
10.12532779550256
20
-7.7621889017134649
30
0
40
2.032062930270226
210
0
220
0
230
1
100
AcDbArc
50
-60.771285347573965
51
4.4024857714827581
0
LINE
5
222
100
AcDbEntity
8
0
100
AcDbLine
10
10.823700065386529
20
-9.4752275550889742
30
0
11
11.117137109348656
21
-9.537599524220175
31
0
0
ARC
5
223
100
AcDbEntity
8
0
100
AcDbCircle
10
12.158450471615616
20
-8.1943424672014142
30
0
40
2.0320629302702122
210
0
220
0
230
1
100
AcDbArc
50
151.59751422851724
51
216.77128534757387
0
ARC
5
224
100
AcDbEntity
8
0
100
AcDbCircle
10
5.8254957969073029
20
-4.7697715597524315
30
0
40
5.1675204474021257
210
0
220
0
230
1
100
AcDbArc
50
331.59751422851673
51
347.47175409556405
0
ARC
5
225
100
AcDbEntity
8
0
100
AcDbCircle
10
9.342862256801201
20
-5.5513723587780284
30
0
40
1.5643598039914033
210
0
220
0
230
1
100
AcDbArc
50
-12.528245904436412
51
73.373934737980449
0
LINE
5
226
100
AcDbEntity
8
0
100
AcDbLine
10
10.823700065386529
20
-9.4752275550889742
30
0
11
10.5302630214244
21
-9.4128555859577645
31
0
0
ARC
5
227
100
AcDbEntity
8
0
100
AcDbCircle
10
19.846847309005643
20
-6.6386058999043129
30
0
40
1.5643598039914011
210
0
220
0
230
1
100
AcDbArc
50
94.626065262019623
51
180.52824590443612
0
ARC
5
228
100
AcDbEntity
8
0
100
AcDbCircle
10
23.44985481632234
20
-6.6053865615080198
30
0
40
5.167520447402123
210
0
220
0
230
1
100
AcDbArc
50
180.52824590443544
51
196.40248577148327
0
ARC
5
229
100
AcDbEntity
8
0
100
AcDbCircle
10
16.543282068007436
20
-8.6384270638811955
30
0
40
2.0320629302702193
210
0
220
0
230
1
100
AcDbArc
50
-48.771285347573802
51
16.402485771482841
0
LINE
5
230
100
AcDbEntity
8
0
100
AcDbLine
10
17.582553991072938
20
-10.168831953192896
30
0
11
17.882546593152618
21
-10.168831953192896
31
0
0
ARC
5
231
100
AcDbEntity
8
0
100
AcDbCircle
10
18.621825914138441
20
-8.6384270638811955
30
0
40
2.0320629302702145
210
0
220
0
230
1
100
AcDbArc
50
163.59751422851716
51
228.77128534757375
0
ARC
5
232
100
AcDbEntity
8
0
100
AcDbCircle
10
11.715253165823537
20
-6.6053865615080198
30
0
40
5.1675204474021257
210
0
220
0
230
1
100
AcDbArc
50
343.59751422851667
51
359.47175409556456
0
ARC
5
233
100
AcDbEntity
8
0
100
AcDbCircle
10
15.318260673140232
20
-6.6386058999043129
30
0
40
1.5643598039914028
210
0
220
0
230
1
100
AcDbArc
50
-0.5282459044361415
51
85.373934737980377
0
LINE
5
234
100
AcDbEntity
8
0
100
AcDbLine
10
17.582553991072938
20
-10.168831953192896
30
0
11
17.282561388993258
21
-10.168831953192896
31
0
0
ARC
5
235
100
AcDbEntity
8
0
100
AcDbCircle
10
25.818757013947106
20
-5.5181794870660195
30
0
40
1.564359803991402
210
0
220
0
230
1
100
AcDbArc
50
106.62606526201957
51
192.5282459044364
0
ARC
5
236
100
AcDbEntity
8
0
100
AcDbCircle
10
29.336123473841003
20
-4.7365786880404315
30
0
40
5.1675204474021257
210
0
220
0
230
1
100
AcDbArc
50
192.52824590443586
51
208.40248577148324
0
ARC
5
237
100
AcDbEntity
8
0
100
AcDbCircle
10
23.003168799132684
20
-8.1611495954894053
30
0
40
2.0320629302702207
210
0
220
0
230
1
100
AcDbArc
50
-36.771285347573986
51
28.402485771482773
0
LINE
5
238
100
AcDbEntity
8
0
100
AcDbLine
10
24.337919205361771
20
-9.4420346833769653
30
0
11
24.631356249323908
21
-9.3796627142457645
31
0
0
ARC
5
239
100
AcDbEntity
8
0
100
AcDbCircle
10
25.03629147524574
20
-7.7289960300014648
30
0
40
2.0320629302702113
210
0
220
0
230
1
100
AcDbArc
50
175.59751422851724
51
240.77128534757395
0
ARC
5
240
100
AcDbEntity
8
0
100
AcDbCircle
10
17.857951023838634
20
-7.1763395582684986
30
0
40
5.1675204474021319
210
0
220
0
230
1
100
AcDbArc
50
-4.4024857714833434
51
11.471754095564027
0
ARC
5
241
100
AcDbEntity
8
0
100
AcDbCircle
10
21.389130861360176
20
-6.4597255915435081
30
0
40
1.5643598039914033
210
0
220
-0
230
1
100
AcDbArc
50
11.471754095563705
51
97.37393473798025
0
LINE
5
242
100
AcDbEntity
8
0
100
AcDbLine
10
24.337919205361771
20
-9.4420346833769653
30
0
11
24.044482161399642
21
-9.504406652508175
31
0
0
ARC
5
243
100
AcDbEntity
8
0
100
AcDbCircle
10
31.427216413704436
20
-3.1806072353840875
30
0
40
1.5643598039914017
210
0
220
0
230
1
100
AcDbArc
50
118.62606526201938
51
204.52824590443635
0
ARC
5
244
100
AcDbEntity
8
0
100
AcDbCircle
10
34.705216033681282
20
-1.6847846811833644
30
0
40
5.167520447402123
210
0
220
0
230
1
100
AcDbArc
50
204.52824590443589
51
220.40248577148324
0
ARC
5
245
100
AcDbEntity
8
0
100
AcDbCircle
10
29.222659940752436
20
-6.351215812138209
30
0
40
2.0320629302702211
210
0
220
0
230
1
100
AcDbArc
50
-24.771285347573766
51
40.402485771482901
0
LINE
5
246
100
AcDbEntity
8
0
100
AcDbLine
10
30.794553832549845
20
-7.3266002738923497
30
0
11
31.068610711506125
21
-7.2045822899748835
31
0
0
ARC
5
247
100
AcDbEntity
8
0
100
AcDbCircle
10
31.121504229896395
20
-5.5057958656770278
30
0
40
2.0320629302702158
210
0
220
0
230
1
100
AcDbArc
50
187.5975142285169
51
252.77128534757384
0
ARC
5
248
100
AcDbEntity
8
0
100
AcDbCircle
10
23.985123998622733
20
-6.4576771643389907
30
0
40
5.1675204474021283
210
0
220
-0
230
1
100
AcDbArc
50
7.5975142285167596
51
23.47175409556402
0
ARC
5
249
100
AcDbEntity
8
0
100
AcDbCircle
10
27.290146662968603
20
-5.022549361533919
30
0
40
1.5643598039914006
210
0
220
-0
230
1
100
AcDbArc
50
23.47175409556359
51
109.37393473798018
0
LINE
5
250
100
AcDbEntity
8
0
100
AcDbLine
10
30.794553832549845
20
-7.3266002738923497
30
0
11
30.520496953593572
21
-7.4486182578098159
31
0
0
ARC
5
251
100
AcDbEntity
8
0
100
AcDbCircle
10
36.427108920134181
20
0.27194773082682033
30
0
40
1.5643598039914075
210
0
220
0
230
1
100
AcDbArc
50
130.62606526201958
51
216.52824590443655
0
ARC
5
252
100
AcDbEntity
8
0
100
AcDbCircle
10
39.322477387213652
20
2.4166174168311283
30
0
40
5.1675204474021266
210
0
220
0
230
1
100
AcDbArc
50
216.52824590443592
51
232.40248577148319
0
ARC
5
253
100
AcDbEntity
8
0
100
AcDbCircle
10
34.92993388554823
20
-3.2877285051859406
30
0
40
2.0320629302702242
210
0
220
0
230
1
100
AcDbArc
50
-12.771285347574004
51
52.402485771482631
0
LINE
5
254
100
AcDbEntity
8
0
100
AcDbLine
10
36.670271957058674
20
-3.9149833594140837
30
0
11
36.912971070327892
21
-3.7386521321147992
31
0
0
ARC
5
255
100
AcDbEntity
8
0
100
AcDbCircle
10
36.611511180621683
20
-2.0659910861868624
30
0
40
2.0320629302702109
210
0
220
0
230
1
100
AcDbArc
50
199.59751422851696
51
264.77128534757367
0
ARC
5
256
100
AcDbEntity
8
0
100
AcDbCircle
10
29.8289852297398
20
-4.4808083748589755
30
0
40
5.1675204474021319
210
0
220
-0
230
1
100
AcDbArc
50
19.597514228516694
51
35.471754095564016
0
ARC
5
257
100
AcDbEntity
8
0
100
AcDbCircle
10
32.763405371219783
20
-2.3898887074636477
30
0
40
1.5643598039914028
210
0
220
-0
230
1
100
AcDbArc
50
35.471754095563455
51
121.37393473798046
0
LINE
5
258
100
AcDbEntity
8
0
100
AcDbLine
10
36.670271957058674
20
-3.9149833594140837
30
0
11
36.427572843789449
21
-4.0913145867133682
31
0
0
ARC
5
259
100
AcDbEntity
8
0
100
AcDbCircle
10
40.599915238559191
20
4.6885921923464569
30
0
40
1.5643598039914
210
0
220
0
230
1
100
AcDbArc
50
142.62606526201992
51
228.52824590443646
0
ARC
5
260
100
AcDbEntity
8
0
100
AcDbCircle
10
42.986111057210536
20
7.3883766536090079
30
0
40
5.1675204474021186
210
0
220
0
230
1
100
AcDbArc
50
228.52824590443598
51
244.40248577148327
0
ARC
5
261
100
AcDbEntity
8
0
100
AcDbCircle
10
39.875555375593606
20
0.89542322981052358
30
0
40
2.0320629302702091
210
0
220
0
230
1
100
AcDbArc
50
-0.77128534757368228
51
64.402485771482873
0
LINE
5
262
100
AcDbEntity
8
0
100
AcDbLine
10
41.708276502023466
20
0.64371203014088607
30
0
11
41.909010733756205
21
0.8666499800579075
31
0
0
ARC
5
263
100
AcDbEntity
8
0
100
AcDbCircle
10
41.266372679698719
20
2.440082333590663
30
0
40
2.0320629302702145
210
0
220
0
230
1
100
AcDbArc
50
211.59751422851718
51
276.77128534757378
0
ARC
5
264
100
AcDbEntity
8
0
100
AcDbCircle
10
35.134129939432611
20
-1.3321318419976613
30
0
40
5.1675204474021283
210
0
220
-0
230
1
100
AcDbArc
50
31.597514228516651
51
47.471754095564052
0
ARC
5
265
100
AcDbEntity
8
0
100
AcDbCircle
10
37.569699316953937
20
1.323196467176988
30
0
40
1.5643598039914091
210
0
220
-0
230
1
100
AcDbArc
50
47.471754095563661
51
133.37393473798048
0
LINE
5
266
100
AcDbEntity
8
0
100
AcDbLine
10
41.708276502023466
20
0.64371203014088607
30
0
11
41.507542270290699
21
0.42077408022388241
31
0
0
ARC
5
267
100
AcDbEntity
8
0
100
AcDbCircle
10
43.763263709518029
20
9.8762975927949093
30
0
40
1.5643598039914033
210
0
220
0
230
1
100
AcDbArc
50
154.62606526201955
51
240.5282459044364
0
ARC
5
268
100
AcDbEntity
8
0
100
AcDbCircle
10
45.535998672228281
20
13.013203293355357
30
0
40
5.1675204474021204
210
0
220
0
230
1
100
AcDbArc
50
240.52824590443589
51
256.40248577148316
0
ARC
5
269
100
AcDbEntity
8
0
100
AcDbCircle
10
43.843377020048671
20
6.0154155890427585
30
0
40
2.0320629302702224
210
0
220
-0
230
1
100
AcDbArc
50
11.228714652426049
51
76.402485771482944
0
LINE
5
270
100
AcDbEntity
8
0
100
AcDbLine
10
45.688382493801271
20
6.1502490312015379
30
0
11
45.838378794841113
21
6.4100502455499342
31
0
0
ARC
5
271
100
AcDbEntity
8
0
100
AcDbCircle
10
44.88264894311417
20
7.8154873626720178
30
0
40
2.032062930270218
210
0
220
0
230
1
100
AcDbArc
50
223.59751422851704
51
288.77128534757401
0
ARC
5
272
100
AcDbEntity
8
0
100
AcDbCircle
10
39.668697846978873
20
2.8507401607325988
30
0
40
5.1675204474021132
210
0
220
-0
230
1
100
AcDbArc
50
43.597514228516694
51
59.471754095563902
0
ARC
5
273
100
AcDbEntity
8
0
100
AcDbCircle
10
41.498970391585324
20
5.9544265228967497
30
0
40
1.5643598039914042
210
0
220
-0
230
1
100
AcDbArc
50
59.471754095563256
51
145.37393473798016
0
LINE
5
274
100
AcDbEntity
8
0
100
AcDbLine
10
45.688382493801271
20
6.1502490312015379
30
0
11
45.538386192761429
21
5.8904478168531416
31
0
0
ARC
5
275
100
AcDbEntity
8
0
100
AcDbCircle
10
45.778900825399724
20
15.608336312800205
30
0
40
1.5643598039914017
210
0
220
0
230
1
100
AcDbArc
50
166.62606526201975
51
252.52824590443655
0
ARC
5
276
100
AcDbEntity
8
0
100
AcDbCircle
10
46.860697907772305
20
19.045265421000455
30
0
40
5.1675204474021266
210
0
220
0
230
1
100
AcDbArc
50
252.52824590443583
51
268.40248577148327
0
ARC
5
277
100
AcDbEntity
8
0
100
AcDbCircle
10
46.65998597333008
20
11.848480337963148
30
0
40
2.0320629302702207
210
0
220
-0
230
1
100
AcDbArc
50
23.228714652426149
51
88.402485771482546
0
LINE
5
278
100
AcDbEntity
8
0
100
AcDbLine
10
48.436640201883911
20
12.363965553525356
30
0
11
48.529343014113302
21
12.649275472573578
31
0
0
ARC
5
279
100
AcDbEntity
8
0
100
AcDbCircle
10
47.302291345338034
20
13.825293007231227
30
0
40
2.0320629302702149
210
0
220
0
230
1
100
AcDbArc
50
235.5975142285171
51
300.77128534757361
0
ARC
5
280
100
AcDbEntity
8
0
100
AcDbCircle
10
43.234506575547861
20
7.8849960551657006
30
0
40
5.1675204474021266
210
0
220
-0
230
1
100
AcDbArc
50
55.597514228516744
51
71.471754095564066
0
ARC
5
281
100
AcDbEntity
8
0
100
AcDbCircle
10
44.379490594418044
20
11.30139448315326
30
0
40
1.5643598039914055
210
0
220
-0
230
1
100
AcDbArc
50
71.471754095563426
51
157.37393473798056
0
LINE
5
282
100
AcDbEntity
8
0
100
AcDbLine
10
48.436640201883911
20
12.363965553525356
30
0
11
48.343937389654528
21
12.078655634477142
31
0
0
ARC
5
283
100
AcDbEntity
8
0
100
AcDbCircle
10
46.558733572140241
20
21.634190754924628
30
0
40
1.5643598039913975
210
0
220
0
230
1
100
AcDbArc
50
178.62606526201975
51
264.52824590443635
0
ARC
5
284
100
AcDbEntity
8
0
100
AcDbCircle
10
46.902313050637126
20
25.220932976520679
30
0
40
5.1675204474021266
210
0
220
0
230
1
100
AcDbArc
50
264.52824590443578
51
280.40248577148316
0
ARC
5
285
100
AcDbEntity
8
0
100
AcDbCircle
10
48.202282908590142
20
18.139684556893705
30
0
40
2.0320629302702189
210
0
220
-0
230
1
100
AcDbArc
50
35.228714652426206
51
100.40248577148293
0
LINE
5
286
100
AcDbEntity
8
0
100
AcDbLine
10
49.832937576824541
20
19.013292368366784
30
0
11
49.864295342511596
21
19.311641579583529
31
0
0
ARC
5
287
100
AcDbEntity
8
0
100
AcDbCircle
10
48.419549902660663
20
20.20684192235397
30
0
40
2.0320629302702118
210
0
220
0
230
1
100
AcDbArc
50
247.59751422851676
51
312.77128534757378
0
ARC
5
288
100
AcDbEntity
8
0
100
AcDbCircle
10
45.675713173052408
20
13.550614701674938
30
0
40
5.1675204474021257
210
0
220
-0
230
1
100
AcDbArc
50
67.597514228516758
51
83.471754095564194
0
ARC
5
289
100
AcDbEntity
8
0
100
AcDbCircle
10
46.085367370318799
20
17.130412190484321
30
0
40
1.5643598039914024
210
0
220
-0
230
1
100
AcDbArc
50
83.471754095563895
51
169.37393473798033
0
LINE
5
290
100
AcDbEntity
8
0
100
AcDbLine
10
49.832937576824541
20
19.013292368366784
30
0
11
49.801579811137493
21
18.714943157150042
31
0
0
ARC
5
291
100
AcDbEntity
8
0
100
AcDbCircle
10
46.068679516654356
20
27.690502164789681
30
0
40
1.5643598039914033
210
0
220
0
230
1
100
AcDbArc
50
190.62606526201961
51
276.5282459044364
0
ARC
5
292
100
AcDbEntity
8
0
100
AcDbCircle
10
45.659025319387965
20
31.270299653599064
30
0
40
5.1675204474021221
210
0
220
0
230
1
100
AcDbArc
50
276.52824590443589
51
292.40248577148321
0
ARC
5
293
100
AcDbEntity
8
0
100
AcDbCircle
10
48.402862048996198
20
24.614072432920029
30
0
40
2.0320629302702198
210
0
220
-0
230
1
100
AcDbArc
50
47.22871465242627
51
112.40248577148277
0
LINE
5
294
100
AcDbEntity
8
0
100
AcDbLine
10
49.816249723160091
20
25.807621986907215
30
0
11
49.784891957473043
21
26.105971198123964
31
0
0
ARC
5
295
100
AcDbEntity
8
0
100
AcDbCircle
10
48.185595054925692
20
26.681229798380297
30
0
40
2.0320629302702158
210
0
220
0
230
1
100
AcDbArc
50
259.59751422851747
51
324.77128534757378
0
ARC
5
296
100
AcDbEntity
8
0
100
AcDbCircle
10
46.885625196972654
20
19.599981378753327
30
0
40
5.1675204474021283
210
0
220
-0
230
1
100
AcDbArc
50
79.597514228516459
51
95.471754095563981
0
ARC
5
297
100
AcDbEntity
8
0
100
AcDbCircle
10
46.542045718475791
20
23.186723600349378
30
0
40
1.5643598039914042
210
0
220
0
230
1
100
AcDbArc
50
95.471754095563639
51
181.37393473798025
0
LINE
5
298
100
AcDbEntity
8
0
100
AcDbLine
10
49.816249723160091
20
25.807621986907215
30
0
11
49.847607488847139
21
25.509272775690476
31
0
0
ARC
5
299
100
AcDbEntity
8
0
100
AcDbCircle
10
44.330156372707009
20
33.51258067237778
30
0
40
1.5643598039914002
210
0
220
0
230
1
100
AcDbArc
50
202.62606526201978
51
288.52824590443646
0
ARC
5
300
100
AcDbEntity
8
0
100
AcDbCircle
10
43.185172353836819
20
36.928979100365339
30
0
40
5.1675204474021283
210
0
220
0
230
1
100
AcDbArc
50
288.52824590443595
51
304.40248577148344
0
ARC
5
301
100
AcDbEntity
8
0
100
AcDbCircle
10
47.252957123626999
20
30.988682148299809
30
0
40
2.0320629302702162
210
0
220
-0
230
1
100
AcDbArc
50
59.228714652426348
51
124.40248577148269
0
LINE
5
302
100
AcDbEntity
8
0
100
AcDbLine
10
48.387305980172869
20
32.450009602005672
30
0
11
48.294603167943499
21
32.735319521053896
31
0
0
ARC
5
303
100
AcDbEntity
8
0
100
AcDbCircle
10
46.610651751619052
20
32.965494817567887
30
0
40
2.0320629302702136
210
0
220
0
230
1
100
AcDbArc
50
271.59751422851707
51
336.77128534757395
0
ARC
5
304
100
AcDbEntity
8
0
100
AcDbCircle
10
46.811363686061256
20
25.768709734530582
30
0
40
5.1675204474021239
210
0
220
0
230
1
100
AcDbArc
50
91.597514228516673
51
107.47175409556395
0
ARC
5
305
100
AcDbEntity
8
0
100
AcDbCircle
10
45.729566603688681
20
29.205638842730828
30
0
40
1.5643598039913977
210
0
220
0
230
1
100
AcDbArc
50
107.47175409556293
51
193.37393473798053
0
LINE
5
306
100
AcDbEntity
8
0
100
AcDbLine
10
48.387305980172869
20
32.450009602005672
30
0
11
48.480008792402259
21
32.164699682957455
31
0
0
ARC
5
307
100
AcDbEntity
8
0
100
AcDbCircle
10
41.419145944048367
20
38.845973509475016
30
0
40
1.5643598039914
210
0
220
0
230
1
100
AcDbArc
50
214.62606526201949
51
300.52824590443601
0
ARC
5
308
100
AcDbEntity
8
0
100
AcDbCircle
10
39.588873399441916
20
41.949659871639177
30
0
40
5.1675204474021221
210
0
220
0
230
1
100
AcDbArc
50
300.52824590443578
51
316.40248577148321
0
ARC
5
309
100
AcDbEntity
8
0
100
AcDbCircle
10
44.802824495577212
20
36.984912669699746
30
0
40
2.0320629302702184
210
0
220
-0
230
1
100
AcDbArc
50
71.228714652426277
51
136.40248577148293
0
LINE
5
310
100
AcDbEntity
8
0
100
AcDbLine
10
45.608558046264314
20
38.650151001170229
30
0
11
45.458561745224472
21
38.909952215518629
31
0
0
ARC
5
311
100
AcDbEntity
8
0
100
AcDbCircle
10
43.763552572511713
20
38.784984443329009
30
0
40
2.0320629302702189
210
0
220
0
230
1
100
AcDbArc
50
283.59751422851724
51
348.77128534757378
0
ARC
5
312
100
AcDbEntity
8
0
100
AcDbCircle
10
45.456174224691296
20
31.787196739016402
30
0
40
5.1675204474021204
210
0
220
0
230
1
100
AcDbArc
50
103.5975142285164
51
119.47175409556391
0
ARC
5
313
100
AcDbEntity
8
0
100
AcDbCircle
10
43.683439261981064
20
34.924102439576856
30
0
40
1.5643598039914028
210
0
220
0
230
1
100
AcDbArc
50
119.47175409556357
51
205.37393473798028
0
LINE
5
314
100
AcDbEntity
8
0
100
AcDbLine
10
45.608558046264314
20
38.650151001170229
30
0
11
45.758554347304141
21
38.39034978682183
31
0
0
ARC
5
315
100
AcDbEntity
8
0
100
AcDbCircle
10
37.462873354988588
20
43.457585816642009
30
0
40
1.5643598039913995
210
0
220
0
230
1
100
AcDbArc
50
226.62606526201938
51
312.52824590443646
0
ARC
5
316
100
AcDbEntity
8
0
100
AcDbCircle
10
35.02730397746727
20
46.112914125816673
30
0
40
5.1675204474021168
210
0
220
0
230
1
100
AcDbArc
50
312.52824590443583
51
328.40248577148316
0
ARC
5
317
100
AcDbEntity
8
0
100
AcDbCircle
10
41.15954671773337
20
42.340699950228341
30
0
40
2.0320629302702238
210
0
220
-0
230
1
100
AcDbArc
50
83.228714652426447
51
148.40248577148304
0
LINE
5
318
100
AcDbEntity
8
0
100
AcDbLine
10
41.601450540058103
20
44.137070253678118
30
0
11
41.400716308325364
21
44.360008203595129
31
0
0
ARC
5
319
100
AcDbEntity
8
0
100
AcDbCircle
10
39.76872941362825
20
43.885359054008475
30
0
40
2.0320629302702136
210
0
220
0
230
1
100
AcDbArc
50
-64.402485771482873
51
0.77128534757365996
0
ARC
5
320
100
AcDbEntity
8
0
100
AcDbCircle
10
42.879285095245187
20
37.392405630209986
30
0
40
5.1675204474021283
210
0
220
0
230
1
100
AcDbArc
50
115.59751422851674
51
131.47175409556399
0
ARC
5
321
100
AcDbEntity
8
0
100
AcDbCircle
10
40.493089276593828
20
40.092190091472553
30
0
40
1.5643598039913975
210
0
220
0
230
1
100
AcDbArc
50
131.47175409556328
51
217.37393473798028
0
LINE
5
322
100
AcDbEntity
8
0
100
AcDbLine
10
41.601450540058103
20
44.137070253678118
30
0
11
41.802184771790856
21
43.9141323037611
31
0
0
ARC
5
323
100
AcDbEntity
8
0
100
AcDbCircle
10
32.634246701971762
20
47.14586800708453
30
0
40
1.5643598039913993
210
0
220
0
230
1
100
AcDbArc
50
238.62606526201972
51
324.52824590443635
0
ARC
5
324
100
AcDbEntity
8
0
100
AcDbCircle
10
29.699826560491786
20
49.236787674479856
30
0
40
5.1675204474021186
210
0
220
0
230
1
100
AcDbArc
50
324.52824590443589
51
340.40248577148327
0
ARC
5
325
100
AcDbEntity
8
0
100
AcDbCircle
10
36.482352511373662
20
46.821970385807745
30
0
40
2.0320629302702189
210
0
220
0
230
1
100
AcDbArc
50
95.228714652426149
51
160.40248577148307
0
LINE
5
326
100
AcDbEntity
8
0
100
AcDbLine
10
36.541113287810646
20
48.670962659034949
30
0
11
36.298414174541435
21
48.847293886334235
31
0
0
ARC
5
327
100
AcDbEntity
8
0
100
AcDbCircle
10
34.800775216300217
20
48.043707804806822
30
0
40
2.0320629302702171
210
0
220
0
230
1
100
AcDbArc
50
-52.402485771483157
51
12.771285347573794
0
ARC
5
328
100
AcDbEntity
8
0
100
AcDbCircle
10
39.193318717965624
20
42.339361882789746
30
0
40
5.1675204474021266
210
0
220
0
230
1
100
AcDbArc
50
127.5975142285168
51
143.47175409556411
0
ARC
5
329
100
AcDbEntity
8
0
100
AcDbCircle
10
36.297950250886153
20
44.484031568794052
30
0
40
1.5643598039914064
210
0
220
0
230
1
100
AcDbArc
50
143.47175409556351
51
229.37393473798011
0
LINE
5
330
100
AcDbEntity
8
0
100
AcDbLine
10
36.541113287810646
20
48.670962659034949
30
0
11
36.783812401079871
21
48.494631431735669
31
0
0
ARC
5
331
100
AcDbEntity
8
0
100
AcDbCircle
10
27.144300140056153
20
49.749624450738672
30
0
40
1.5643598039914028
210
0
220
0
230
1
100
AcDbArc
50
250.62606526201949
51
336.52824590443652
0
ARC
5
332
100
AcDbEntity
8
0
100
AcDbCircle
10
23.83927747571029
20
51.184752253543749
30
0
40
5.1675204474021239
210
0
220
0
230
1
100
AcDbArc
50
336.52824590443595
51
352.40248577148321
0
ARC
5
333
100
AcDbEntity
8
0
100
AcDbCircle
10
30.975657706983949
20
50.232870954881776
30
0
40
2.0320629302702282
210
0
220
0
230
1
100
AcDbArc
50
107.22871465242613
51
172.40248577148279
0
LINE
5
334
100
AcDbEntity
8
0
100
AcDbLine
10
30.648707309637402
20
52.053675363097099
30
0
11
30.374650430681129
21
52.175693347014573
31
0
0
ARC
5
335
100
AcDbEntity
8
0
100
AcDbCircle
10
29.076813417839986
20
51.07829090134296
30
0
40
2.0320629302702118
210
0
220
0
230
1
100
AcDbArc
50
-40.40248577148283
51
24.771285347573869
0
ARC
5
336
100
AcDbEntity
8
0
100
AcDbCircle
10
34.559369510768832
20
46.411859770388105
30
0
40
5.1675204474021257
210
0
220
0
230
1
100
AcDbArc
50
139.59751422851662
51
155.47175409556399
0
ARC
5
337
100
AcDbEntity
8
0
100
AcDbCircle
10
31.281369890791986
20
47.907682324588841
30
0
40
1.564359803991402
210
0
220
0
230
1
100
AcDbArc
50
155.4717540955636
51
241.37393473798005
0
LINE
5
338
100
AcDbEntity
8
0
100
AcDbLine
10
30.648707309637402
20
52.053675363097099
30
0
11
30.922764188593675
21
51.93165737917964
31
0
0
ARC
5
339
100
AcDbEntity
8
0
100
AcDbCircle
10
21.232970677683795
20
51.155058496807143
30
0
40
1.5643598039913986
210
0
220
0
230
1
100
AcDbArc
50
262.62606526201949
51
348.52824590443572
0
ARC
5
340
100
AcDbEntity
8
0
100
AcDbCircle
10
17.701790840162257
20
51.871672463532136
30
0
40
5.1675204474021221
210
0
220
0
230
1
100
AcDbArc
50
-11.471754095564231
51
4.4024857714832537
0
ARC
5
341
100
AcDbEntity
8
0
100
AcDbCircle
10
24.880131291569356
20
52.424328935265088
30
0
40
2.032062930270218
210
0
220
0
230
1
100
AcDbArc
50
119.22871465242618
51
184.40248577148273
0
LINE
5
342
100
AcDbEntity
8
0
100
AcDbLine
10
24.181759021685391
20
54.137367588640579
30
0
11
23.888321977723265
21
54.199739557771792
31
0
0
ARC
5
343
100
AcDbEntity
8
0
100
AcDbCircle
10
22.847008615456303
20
52.856482500753046
30
0
40
2.0320629302702087
210
0
220
0
230
1
100
AcDbArc
50
-28.402485771482919
51
36.771285347573617
0
ARC
5
344
100
AcDbEntity
8
0
100
AcDbCircle
10
29.179963290164615
20
49.431911593304051
30
0
40
5.1675204474021328
210
0
220
0
230
1
100
AcDbArc
50
151.59751422851659
51
167.47175409556402
0
ARC
5
345
100
AcDbEntity
8
0
100
AcDbCircle
10
25.662596830270719
20
50.213512392329648
30
0
40
1.5643598039914033
210
0
220
0
230
1
100
AcDbArc
50
167.4717540955636
51
253.37393473798033
0
LINE
5
346
100
AcDbEntity
8
0
100
AcDbLine
10
24.181759021685391
20
54.137367588640579
30
0
11
24.47519606564752
21
54.074995619509387
31
0
0
CIRCLE
5
347
100
AcDbEntity
8
0
100
AcDbCircle
10
-22.333686803023834
20
47.329227457871887
30
0
40
1.5000000000000002
210
0
220
0
230
1
0
CIRCLE
5
348
100
AcDbEntity
8
0
100
AcDbCircle
10
-22.333686803023834
20
47.329227457871887
30
0
40
4.9999999999999991
210
0
220
0
230
1
0
CIRCLE
5
349
100
AcDbEntity
8
0
100
AcDbCircle
10
-27.247968852041012
20
35.232533183368062
30
0
40
1.4999999999999993
210
0
220
0
230
1
0
CIRCLE
5
350
100
AcDbEntity
8
0
100
AcDbCircle
10
-27.247968852041012
20
35.232533183368062
30
0
40
4.9999999999999991
210
0
220
0
230
1
0
ARC
5
351
100
AcDbEntity
8
0
100
AcDbCircle
10
17.50272954353596
20
22.331070016775811
30
0
40
27.499999999999996
210
0
220
0
230
1
100
AcDbArc
50
130.62608221640423
51
134.08687166412605
0
ARC
5
352
100
AcDbEntity
8
0
100
AcDbCircle
10
17.50272954353596
20
22.331070016775811
30
0
40
27.499999999999996
210
0
220
0
230
1
100
AcDbArc
50
118.62608221640427
51
122.08687166412606
0
ARC
5
353
100
AcDbEntity
8
0
100
AcDbCircle
10
17.50272954353596
20
22.331070016775811
30
0
40
27.5
210
0
220
0
230
1
100
AcDbArc
50
106.62608221640423
51
110.08687166412059
0
ARC
5
354
100
AcDbEntity
8
0
100
AcDbCircle
10
17.50272954353596
20
22.331070016775811
30
0
40
32.5
210
0
220
0
230
1
100
AcDbArc
50
113.85927358325468
51
114.66961259472875
0
ARC
5
355
100
AcDbEntity
8
0
100
AcDbCircle
10
17.50272954353596
20
22.331070016775811
30
0
40
32.500000000000007
210
0
220
0
230
1
100
AcDbArc
50
101.85927358325796
51
102.66961259472875
0
ARC
5
356
100
AcDbEntity
8
0
100
AcDbCircle
10
17.50272954353596
20
22.331070016775811
30
0
40
32.500000000000007
210
0
220
-0
230
1
100
AcDbArc
50
89.612806682009037
51
90.669612594728761
0
ARC
5
357
100
AcDbEntity
8
0
100
AcDbCircle
10
17.50272954353596
20
22.331070016775811
30
0
40
27.499999999999996
210
0
220
0
230
1
100
AcDbArc
50
94.626082216404242
51
98.08687166412696
0
ARC
5
358
100
AcDbEntity
8
0
100
AcDbCircle
10
17.50272954353596
20
22.331070016775811
30
0
40
27.5
210
0
220
-0
230
1
100
AcDbArc
50
82.6260822164042
51
86.086871664123308
0
ARC
5
359
100
AcDbEntity
8
0
100
AcDbCircle
10
17.50272954353596
20
22.331070016775811
30
0
40
32.499999999999993
210
0
220
-0
230
1
100
AcDbArc
50
77.859273583251891
51
78.669612594728719
0
ARC
5
360
100
AcDbEntity
8
0
100
AcDbCircle
10
17.50272954353596
20
22.331070016775811
30
0
40
27.499999999999996
210
0
220
-0
230
1
100
AcDbArc
50
70.626082216404185
51
74.08687166412146
0
ARC
5
361
100
AcDbEntity
8
0
100
AcDbCircle
10
17.50272954353596
20
22.331070016775811
30
0
40
32.5
210
0
220
-0
230
1
100
AcDbArc
50
65.859273583254009
51
66.669612594728704
0
ARC
5
362
100
AcDbEntity
8
0
100
AcDbCircle
10
17.50272954353596
20
22.331070016775811
30
0
40
32.500000000000007
210
0
220
-0
230
1
100
AcDbArc
50
53.859273583252246
51
54.66961259472874
0
ARC
5
363
100
AcDbEntity
8
0
100
AcDbCircle
10
17.50272954353596
20
22.331070016775811
30
0
40
32.500000000000007
210
0
220
-0
230
1
100
AcDbArc
50
41.859273583257696
51
42.669612594728719
0
ARC
5
364
100
AcDbEntity
8
0
100
AcDbCircle
10
17.50272954353596
20
22.331070016775811
30
0
40
32.5
210
0
220
0
230
1
100
AcDbArc
50
126.14072641674787
51
126.66961259472875
0
ARC
5
365
100
AcDbEntity
8
0
100
AcDbCircle
10
17.50272954353596
20
22.331070016775811
30
0
40
32.500000000000007
210
0
220
0
230
1
100
AcDbArc
50
137.85927358325586
51
138.66961259472876
0
ARC
5
366
100
AcDbEntity
8
0
100
AcDbCircle
10
17.50272954353596
20
22.331070016775811
30
0
40
32.500000000000007
210
0
220
0
230
1
100
AcDbArc
50
149.85927358324986
51
150.66961259472876
0
ARC
5
367
100
AcDbEntity
8
0
100
AcDbCircle
10
17.50272954353596
20
22.331070016775811
30
0
40
32.500000000000014
210
0
220
0
230
1
100
AcDbArc
50
161.8592735832498
51
162.66961259472876
0
ARC
5
368
100
AcDbEntity
8
0
100
AcDbCircle
10
17.50272954353596
20
22.331070016775811
30
0
40
32.500000000000021
210
0
220
0
230
1
100
AcDbArc
50
173.85927358325054
51
174.66961259472876
0
ARC
5
369
100
AcDbEntity
8
0
100
AcDbCircle
10
17.50272954353596
20
22.331070016775811
30
0
40
32.500000000000028
210
0
220
0
230
1
100
AcDbArc
50
185.85927358323795
51
186.66961259472868
0
ARC
5
370
100
AcDbEntity
8
0
100
AcDbCircle
10
17.50272954353596
20
22.331070016775811
30
0
40
32.500000000000028
210
0
220
0
230
1
100
AcDbArc
50
197.859273583244
51
198.6696125947287
0
ARC
5
371
100
AcDbEntity
8
0
100
AcDbCircle
10
17.50272954353596
20
22.331070016775811
30
0
40
32.500000000000028
210
0
220
0
230
1
100
AcDbArc
50
209.85927358323076
51
210.6696125947287
0
ARC
5
372
100
AcDbEntity
8
0
100
AcDbCircle
10
17.50272954353596
20
22.331070016775811
30
0
40
32.500000000000028
210
0
220
0
230
1
100
AcDbArc
50
221.8592735832305
51
222.6696125947287
0
ARC
5
373
100
AcDbEntity
8
0
100
AcDbCircle
10
17.50272954353596
20
22.331070016775811
30
0
40
32.50000000000005
210
0
220
-0
230
1
100
AcDbArc
50
29.85927358322952
51
30.669612594728701
0
ARC
5
374
100
AcDbEntity
8
0
100
AcDbCircle
10
17.50272954353596
20
22.331070016775811
30
0
40
32.50000000000005
210
0
220
-0
230
1
100
AcDbArc
50
17.859273583225047
51
18.669612594728715
0
ARC
5
375
100
AcDbEntity
8
0
100
AcDbCircle
10
17.50272954353596
20
22.331070016775811
30
0
40
32.500000000000043
210
0
220
-0
230
1
100
AcDbArc
50
5.8592735832249989
51
6.6696125947286937
0
ARC
5
376
100
AcDbEntity
8
0
100
AcDbCircle
10
17.50272954353596
20
22.331070016775811
30
0
40
32.500000000000028
210
0
220
0
230
1
100
AcDbArc
50
353.85927358322721
51
354.66961259472879
0
ARC
5
377
100
AcDbEntity
8
0
100
AcDbCircle
10
17.50272954353596
20
22.331070016775811
30
0
40
32.500000000000036
210
0
220
0
230
1
100
AcDbArc
50
341.85927358321817
51
342.66961259472873
0
ARC
5
378
100
AcDbEntity
8
0
100
AcDbCircle
10
17.50272954353596
20
22.331070016775811
30
0
40
32.500000000000043
210
0
220
0
230
1
100
AcDbArc
50
329.85927358322641
51
330.66961259472879
0
ARC
5
379
100
AcDbEntity
8
0
100
AcDbCircle
10
17.50272954353596
20
22.331070016775811
30
0
40
32.500000000000036
210
0
220
0
230
1
100
AcDbArc
50
317.85927358323357
51
318.66961259472873
0
ARC
5
380
100
AcDbEntity
8
0
100
AcDbCircle
10
17.50272954353596
20
22.331070016775811
30
0
40
32.500000000000043
210
0
220
0
230
1
100
AcDbArc
50
233.85927358323531
51
234.6696125947287
0
ARC
5
381
100
AcDbEntity
8
0
100
AcDbCircle
10
17.50272954353596
20
22.331070016775811
30
0
40
32.500000000000043
210
0
220
0
230
1
100
AcDbArc
50
245.85927358322587
51
246.66961259472873
0
ARC
5
382
100
AcDbEntity
8
0
100
AcDbCircle
10
17.50272954353596
20
22.331070016775811
30
0
40
32.500000000000043
210
0
220
0
230
1
100
AcDbArc
50
257.85927358322527
51
258.66961259472879
0
ARC
5
383
100
AcDbEntity
8
0
100
AcDbCircle
10
17.50272954353596
20
22.331070016775811
30
0
40
32.50000000000005
210
0
220
0
230
1
100
AcDbArc
50
269.85927358322613
51
270.66961259472873
0
ARC
5
384
100
AcDbEntity
8
0
100
AcDbCircle
10
17.50272954353596
20
22.331070016775811
30
0
40
32.50000000000005
210
0
220
0
230
1
100
AcDbArc
50
281.85927358322681
51
282.66961259472873
0
ARC
5
385
100
AcDbEntity
8
0
100
AcDbCircle
10
17.50272954353596
20
22.331070016775811
30
0
40
32.500000000000057
210
0
220
0
230
1
100
AcDbArc
50
293.85927358321891
51
294.14072641674778
0
ARC
5
386
100
AcDbEntity
8
0
100
AcDbCircle
10
17.50272954353596
20
22.331070016775811
30
0
40
32.500000000000007
210
0
220
0
230
1
100
AcDbArc
50
305.85927358326563
51
306.14072641674784
0
ARC
5
387
100
AcDbEntity
8
0
100
AcDbCircle
10
17.50272954353596
20
22.331070016775811
30
0
40
27.499999999999993
210
0
220
0
230
1
100
AcDbArc
50
142.62608221640423
51
146.08687166412605
0
ARC
5
388
100
AcDbEntity
8
0
100
AcDbCircle
10
17.50272954353596
20
22.331070016775811
30
0
40
27.499999999999993
210
0
220
0
230
1
100
AcDbArc
50
154.62608221640423
51
158.08687166412602
0
ARC
5
389
100
AcDbEntity
8
0
100
AcDbCircle
10
17.50272954353596
20
22.331070016775811
30
0
40
27.499999999999996
210
0
220
0
230
1
100
AcDbArc
50
166.62608221640423
51
170.08687166412332
0
ARC
5
390
100
AcDbEntity
8
0
100
AcDbCircle
10
17.50272954353596
20
22.331070016775811
30
0
40
27.5
210
0
220
0
230
1
100
AcDbArc
50
178.62608221640423
51
182.08687166412409
0
ARC
5
391
100
AcDbEntity
8
0
100
AcDbCircle
10
17.50272954353596
20
22.331070016775811
30
0
40
27.5
210
0
220
0
230
1
100
AcDbArc
50
190.62608221640423
51
194.0868716641242
0
ARC
5
392
100
AcDbEntity
8
0
100
AcDbCircle
10
17.50272954353596
20
22.331070016775811
30
0
40
27.5
210
0
220
0
230
1
100
AcDbArc
50
202.62608221640423
51
206.0868716641242
0
ARC
5
393
100
AcDbEntity
8
0
100
AcDbCircle
10
17.50272954353596
20
22.331070016775811
30
0
40
27.5
210
0
220
0
230
1
100
AcDbArc
50
214.6260822164042
51
218.08687166412599
0
ARC
5
394
100
AcDbEntity
8
0
100
AcDbCircle
10
17.50272954353596
20
22.331070016775811
30
0
40
27.5
210
0
220
0
230
1
100
AcDbArc
50
226.6260822164042
51
230.0868716641242
0
ARC
5
395
100
AcDbEntity
8
0
100
AcDbCircle
10
17.50272954353596
20
22.331070016775811
30
0
40
27.499999999999993
210
0
220
0
230
1
100
AcDbArc
50
238.62608221640423
51
242.08687166412599
0
ARC
5
396
100
AcDbEntity
8
0
100
AcDbCircle
10
17.50272954353596
20
22.331070016775811
30
0
40
27.5
210
0
220
0
230
1
100
AcDbArc
50
250.6260822164042
51
254.08687166412417
0
ARC
5
397
100
AcDbEntity
8
0
100
AcDbCircle
10
17.50272954353596
20
22.331070016775811
30
0
40
27.5
210
0
220
0
230
1
100
AcDbArc
50
262.6260822164042
51
266.08687166412329
0
ARC
5
398
100
AcDbEntity
8
0
100
AcDbCircle
10
17.50272954353596
20
22.331070016775811
30
0
40
27.499999999999996
210
0
220
0
230
1
100
AcDbArc
50
274.6260822164042
51
278.08687166412415
0
ARC
5
399
100
AcDbEntity
8
0
100
AcDbCircle
10
17.50272954353596
20
22.331070016775811
30
0
40
27.499999999999996
210
0
220
0
230
1
100
AcDbArc
50
286.6260822164042
51
290.0868716641242
0
ARC
5
400
100
AcDbEntity
8
0
100
AcDbCircle
10
17.50272954353596
20
22.331070016775811
30
0
40
27.499999999999996
210
0
220
0
230
1
100
AcDbArc
50
298.6260822164042
51
302.0868716641242
0
ARC
5
401
100
AcDbEntity
8
0
100
AcDbCircle
10
17.50272954353596
20
22.331070016775811
30
0
40
27.499999999999996
210
0
220
0
230
1
100
AcDbArc
50
310.6260822164042
51
314.08687166412329
0
ARC
5
402
100
AcDbEntity
8
0
100
AcDbCircle
10
17.50272954353596
20
22.331070016775811
30
0
40
27.5
210
0
220
0
230
1
100
AcDbArc
50
322.6260822164042
51
326.08687166412693
0
ARC
5
403
100
AcDbEntity
8
0
100
AcDbCircle
10
17.50272954353596
20
22.331070016775811
30
0
40
27.499999999999996
210
0
220
-0
230
1
100
AcDbArc
50
58.626082216404221
51
62.086871664123265
0
ARC
5
404
100
AcDbEntity
8
0
100
AcDbCircle
10
17.50272954353596
20
22.331070016775811
30
0
40
27.499999999999996
210
0
220
-0
230
1
100
AcDbArc
50
46.6260822164042
51
50.086871664128779
0
ARC
5
405
100
AcDbEntity
8
0
100
AcDbCircle
10
17.50272954353596
20
22.331070016775811
30
0
40
27.499999999999996
210
0
220
-0
230
1
100
AcDbArc
50
34.626082216404178
51
38.086871664118711
0
ARC
5
406
100
AcDbEntity
8
0
100
AcDbCircle
10
17.50272954353596
20
22.331070016775811
30
0
40
27.499999999999996
210
0
220
-0
230
1
100
AcDbArc
50
22.626082216404207
51
26.086871664121432
0
ARC
5
407
100
AcDbEntity
8
0
100
AcDbCircle
10
17.50272954353596
20
22.331070016775811
30
0
40
27.5
210
0
220
-0
230
1
100
AcDbArc
50
10.626082216404168
51
14.086871664124192
0
ARC
5
408
100
AcDbEntity
8
0
100
AcDbCircle
10
17.50272954353596
20
22.331070016775811
30
0
40
27.499999999999993
210
0
220
0
230
1
100
AcDbArc
50
-1.3739177835957592
51
2.0868716641241241
0
ARC
5
409
100
AcDbEntity
8
0
100
AcDbCircle
10
17.50272954353596
20
22.331070016775811
30
0
40
27.499999999999993
210
0
220
0
230
1
100
AcDbArc
50
334.6260822164042
51
338.08687166412335
0
ARC
5
410
100
AcDbEntity
8
0
100
AcDbCircle
10
17.50272954353596
20
22.331070016775811
30
0
40
27.499999999999986
210
0
220
0
230
1
100
AcDbArc
50
346.62608221640426
51
350.08687166412597
0
ENDSEC
0
SECTION
2
OBJECTS
0
DICTIONARY
5
C
100
AcDbDictionary
3
ACAD_GROUP
350
D
3
ACAD_MLINESTYLE
350
17
0
DICTIONARY
5
D
100
AcDbDictionary
0
DICTIONARY
5
1A
330
C
100
AcDbDictionary
0
DICTIONARY
5
17
100
AcDbDictionary
0
ENDSEC
0
EOF
